<?xml version="1.0" standalone="no"?>
<!DOCTYPE svg PUBLIC "-//W3C//DTD SVG 20010904//EN"
 "http://www.w3.org/TR/2001/REC-SVG-20010904/DTD/svg10.dtd">
<svg version="1.0" xmlns="http://www.w3.org/2000/svg"
 width="971.000000pt" height="971.000000pt" viewBox="0 0 971.000000 971.000000"
 preserveAspectRatio="xMidYMid meet">
<metadata>
Created by potrace 1.14, written by Peter Selinger 2001-2017
</metadata>
<g transform="translate(0.000000,971.000000) scale(0.100000,-0.100000)"
fill="#000000" stroke="none">
<path d="M4962 8050 c-7 -12 -18 -18 -24 -14 -6 4 -8 3 -5 -3 7 -11 -55 -73
-72 -73 -6 0 -11 -4 -11 -9 0 -12 -139 -91 -295 -167 -66 -33 -122 -61 -125
-64 -3 -3 -18 -14 -35 -24 -33 -20 -137 -97 -145 -107 -3 -3 -18 -22 -34 -42
-16 -20 -33 -34 -37 -31 -5 3 -6 -1 -3 -9 3 -8 -2 -20 -11 -27 -8 -7 -15 -17
-15 -23 0 -6 -40 -49 -88 -96 -82 -80 -162 -172 -162 -185 0 -9 -53 -90 -63
-97 -5 -3 -8 -9 -8 -13 3 -19 0 -27 -8 -22 -5 3 -8 0 -7 -7 0 -6 -14 -50 -33
-97 -18 -46 -34 -91 -36 -100 -2 -8 -9 -37 -15 -65 -7 -27 -13 -63 -15 -80 -1
-16 -4 -30 -5 -30 -3 0 -10 -342 -9 -390 2 -45 4 -59 13 -73 4 -6 4 -12 0 -12
-3 0 5 -15 19 -34 15 -18 23 -37 19 -41 -4 -3 -1 -5 7 -3 15 3 23 -11 64 -102
67 -149 96 -224 90 -233 -3 -6 -1 -7 4 -4 6 4 18 -8 27 -27 8 -18 22 -39 31
-46 8 -7 15 -19 15 -26 0 -8 5 -14 10 -14 6 0 10 -6 10 -13 0 -7 9 -19 20 -27
11 -8 20 -17 20 -21 0 -6 96 -103 136 -138 39 -34 173 -119 178 -114 3 4 6 1
6 -5 0 -7 3 -11 8 -10 10 2 65 -24 73 -35 3 -5 9 -8 13 -8 3 1 11 1 16 1 6 0
10 -63 10 -170 0 -170 0 -170 -22 -170 -13 0 -61 -9 -108 -21 -47 -11 -89 -22
-95 -23 -13 -3 -126 -36 -143 -41 -7 -3 -13 -4 -15 -3 -1 1 -13 -5 -27 -12
-14 -8 -27 -15 -30 -15 -3 -1 -28 -11 -57 -24 -29 -13 -55 -22 -59 -21 -4 1
-10 -2 -13 -7 -3 -4 -26 -18 -51 -31 -25 -13 -65 -36 -90 -52 -25 -17 -52 -33
-60 -37 -8 -3 -17 -9 -20 -12 -3 -4 -23 -19 -45 -35 -52 -39 -169 -156 -178
-178 -3 -10 -11 -18 -17 -18 -6 0 -8 -4 -5 -10 3 -6 2 -10 -3 -10 -5 0 -14
-11 -19 -23 -10 -21 -18 -24 -67 -23 -31 1 -56 -3 -56 -7 0 -5 -5 -5 -11 -2
-31 20 -254 2 -280 -21 -11 -9 -19 -14 -19 -10 0 4 -12 -4 -27 -18 -15 -14
-31 -22 -37 -19 -6 3 -8 2 -3 -2 4 -5 -1 -18 -11 -29 -11 -12 -27 -41 -37 -66
-17 -41 -19 -81 -20 -425 0 -209 -4 -386 -8 -392 -4 -6 -3 -14 3 -18 11 -7 9
-33 -3 -52 -5 -7 -4 -13 0 -13 10 0 10 -156 0 -166 -3 -4 -2 -15 4 -25 6 -13
6 -25 0 -38 -6 -10 -7 -22 -3 -26 14 -14 8 -100 -8 -113 -11 -9 -11 -12 -1
-10 16 4 23 -29 11 -52 -6 -11 -5 -22 3 -30 9 -10 9 -14 -1 -17 -6 -3 -9 -10
-5 -16 12 -19 11 -107 0 -100 -6 3 -7 1 -3 -6 11 -17 16 -82 6 -76 -5 3 -7 -3
-5 -12 2 -10 4 -18 5 -18 6 0 5 -93 -2 -106 -4 -9 -4 -20 0 -24 11 -11 9 -75
-3 -75 -6 0 -7 -3 0 -8 15 -11 17 -154 2 -146 -7 4 -2 -3 11 -15 20 -19 23
-27 22 -46 -1 -3 6 -13 15 -21 8 -9 12 -20 9 -26 -4 -6 -3 -8 3 -5 5 4 20 -5
31 -18 12 -14 27 -25 33 -25 5 0 7 -4 4 -10 -3 -5 0 -7 8 -4 8 3 18 0 22 -5 3
-6 11 -9 16 -6 5 4 9 1 9 -5 0 -6 4 -9 9 -5 5 3 12 2 14 -2 3 -5 -303 -8 -679
-8 -376 0 -684 1 -684 3 0 1 10 17 22 33 21 28 23 41 23 164 0 145 -1 150 -70
198 -25 18 -46 22 -130 24 -55 2 -102 3 -105 3 -2 0 24 17 60 37 35 21 89 63
120 93 52 51 120 141 124 165 1 5 11 28 23 50 11 22 29 67 38 100 20 67 22 72
30 133 l6 44 -41 -7 c-57 -10 -75 -13 -75 -15 0 -1 -9 -3 -19 -5 -33 -6 -111
-34 -162 -57 -27 -12 -53 -22 -58 -22 -5 -1 -11 26 -12 59 -1 33 -3 61 -4 63
-2 1 -3 10 -5 20 -1 9 -5 29 -9 43 -4 14 -8 32 -9 40 -5 28 -50 139 -57 139
-14 0 -166 -156 -199 -203 -42 -62 -89 -157 -108 -221 -18 -58 -24 -237 -11
-300 17 -81 19 -91 25 -111 12 -37 11 -45 -5 -46 -10 0 -80 -1 -156 -1 -152
-1 -177 -8 -221 -59 -14 -17 -26 -34 -26 -37 -9 -53 -12 -200 -4 -237 3 -16
15 -42 25 -57 11 -15 20 -29 20 -30 0 -2 -164 -3 -365 -3 l-365 0 2 -165 3
-165 197 0 c108 0 199 -3 202 -6 3 -3 6 -33 7 -67 l2 -62 4443 0 4444 0 -2 58
c-1 32 1 62 4 67 4 7 84 10 207 10 l201 0 0 161 c0 121 -3 163 -12 166 -7 2
-197 4 -421 3 -238 0 -411 4 -414 9 -4 5 -2 7 3 3 5 -3 18 1 29 9 10 8 15 14
9 14 -5 0 -3 4 4 8 7 5 15 30 18 57 2 27 6 51 9 53 2 2 0 15 -5 28 -6 14 -6
26 0 29 6 4 7 14 2 23 -4 9 -7 24 -6 32 1 8 2 21 3 29 1 11 4 11 18 0 11 -10
14 -10 9 -1 -5 8 0 12 16 12 35 0 103 54 126 100 10 22 23 36 28 32 5 -3 4 -1
-3 7 -7 9 -9 22 -3 36 5 14 4 27 -3 34 -6 6 -8 11 -4 11 3 0 0 17 -7 38 -15
42 -74 105 -102 110 -61 11 -74 16 -75 28 -1 8 -2 42 -3 76 l-1 62 -375 1
-375 0 0 -382 c0 -210 3 -385 7 -389 4 -4 2 -14 -5 -22 -9 -13 -9 -14 1 -8 6
4 12 2 12 -3 0 -6 7 -11 15 -11 8 0 15 -6 15 -13 0 -9 -145 -12 -695 -12 -607
0 -697 2 -706 15 -10 13 -10 13 -6 0 4 -13 -9 -15 -79 -15 -46 0 -84 3 -84 8
0 6 24 11 43 8 4 0 7 4 7 9 0 6 6 10 13 10 15 1 77 56 77 70 0 5 5 10 11 10 5
0 7 5 4 10 -3 6 -1 10 4 10 6 0 11 6 11 13 0 6 6 23 13 37 7 14 13 39 12 55
-1 17 3 38 7 47 5 10 5 18 0 18 -4 0 -8 9 -8 20 0 11 5 20 11 20 5 0 4 4 -3 9
-8 4 -14 12 -14 16 0 4 6 12 14 16 10 7 10 9 0 9 -10 0 -10 5 -1 21 8 15 8 19
0 15 -14 -9 -14 0 0 26 6 11 7 18 2 15 -4 -3 -8 62 -8 144 0 82 4 149 8 149 5
0 5 6 0 13 -13 21 -14 49 -1 41 7 -4 8 -3 4 5 -12 19 -14 61 -4 67 4 3 5 10 2
16 -10 16 -11 499 -1 505 4 2 4 10 0 16 -11 18 -10 196 2 189 6 -3 4 1 -3 10
-9 12 -10 18 -2 23 8 5 8 10 0 20 -8 10 -8 15 0 20 8 5 8 10 0 20 -8 9 -8 15
0 20 6 3 7 12 3 18 -11 18 -12 36 -2 43 5 3 6 10 3 16 -3 5 -8 76 -10 156 -3
157 -11 222 -25 222 -5 0 -9 6 -9 13 0 31 -126 128 -167 129 -4 0 -14 4 -20
10 -9 7 -13 7 -13 -3 0 -9 -3 -10 -11 -2 -6 6 -25 7 -49 3 -22 -4 -38 -4 -36
-1 2 3 -31 6 -75 6 -43 0 -79 -3 -79 -6 0 -3 -14 -4 -31 -1 -20 3 -29 9 -25
18 3 8 0 13 -7 11 -7 -1 -11 4 -10 11 2 6 -4 12 -12 12 -8 0 -15 6 -15 13 0
12 -19 36 -80 104 -55 60 -278 223 -306 223 -3 0 -19 9 -35 21 -16 11 -29 18
-29 15 0 -3 -17 3 -37 13 -104 52 -289 117 -385 136 -16 3 -40 7 -55 10 -16 3
-38 8 -50 10 -12 2 -28 7 -35 12 -16 10 -19 75 -4 85 8 6 8 8 0 8 -12 0 -13
38 -1 58 5 6 5 12 0 12 -4 0 -9 18 -9 40 -1 23 4 40 10 40 6 0 5 4 -2 9 -17
11 -17 21 0 32 8 6 9 9 1 9 -6 0 -9 9 -6 20 3 12 23 26 52 37 62 23 191 100
249 148 43 35 135 130 165 169 19 25 38 42 41 38 4 -4 7 -2 5 3 -3 12 11 48
22 55 10 7 90 160 83 160 -2 0 1 10 8 23 7 12 12 25 13 29 0 3 3 10 8 14 4 4
7 16 7 26 0 10 5 18 11 18 5 0 7 5 4 10 -3 6 -1 10 5 10 6 0 9 4 5 9 -3 5 -1
12 5 16 6 4 8 10 5 15 -3 4 2 11 11 14 8 3 13 10 9 16 -3 5 10 25 28 45 40 42
59 96 57 163 0 26 -2 124 -4 217 -2 94 -9 195 -15 225 -6 30 -13 66 -14 80 -1
14 -5 27 -9 31 -4 3 -9 20 -11 39 -3 19 -9 36 -16 38 -6 2 -11 14 -11 27 0 13
-5 27 -10 30 -6 4 -8 11 -5 16 4 5 1 9 -5 9 -6 0 -8 5 -5 10 3 6 3 10 -2 10
-4 0 -15 15 -22 33 -8 17 -35 64 -60 102 -25 39 -44 73 -43 78 1 4 -5 7 -13 7
-8 0 -15 5 -15 11 0 7 -11 22 -24 34 -14 13 -22 26 -19 29 4 3 2 6 -4 6 -6 0
-25 15 -42 32 -26 26 -32 40 -30 68 2 20 0 41 -5 48 -4 7 -5 12 -2 12 3 0 -6
21 -19 46 -14 26 -22 50 -19 55 3 5 2 9 -3 8 -21 -4 -33 2 -33 17 0 8 -4 12
-10 9 -5 -3 -15 3 -22 15 -7 11 -20 20 -28 20 -9 0 -25 6 -36 14 -25 18 -130
46 -140 37 -4 -3 3 9 15 27 51 73 70 189 47 275 -10 34 -16 34 -46 -1 -26 -29
-120 -89 -120 -77 0 4 -6 2 -14 -4 -8 -7 -20 -11 -28 -10 -7 1 -26 -3 -41 -9
-16 -7 -33 -10 -38 -6 -5 3 -15 2 -21 -3 -19 -11 -38 -12 -38 -2 0 6 -6 7 -12
2 -14 -9 -98 -14 -98 -6 0 8 30 35 30 26 1 -14 32 61 34 82 2 24 -13 75 -23
75 -3 0 -12 -9 -19 -20z m4014 -5436 c82 -39 89 -157 12 -204 -57 -35 -63 -28
-63 90 -1 101 2 130 12 130 3 0 21 -7 39 -16z"/>
<path d="M8399 3426 c-2 -2 -20 -6 -39 -9 -49 -7 -70 -17 -70 -34 0 -13 68
-83 82 -83 3 0 16 -20 28 -45 20 -42 21 -46 5 -79 -10 -20 -30 -41 -50 -50
-61 -29 -77 -91 -29 -116 13 -7 24 -17 24 -21 0 -4 11 -10 25 -13 40 -10 138
-58 160 -79 19 -17 20 -17 29 2 13 30 86 61 158 68 95 8 97 8 109 20 8 8 8 22
-1 49 -11 33 -11 39 6 51 10 7 24 13 31 13 7 0 22 8 33 17 23 20 28 81 8 101
-7 7 -9 12 -5 12 16 0 -63 61 -121 94 -76 43 -242 96 -320 101 -32 3 -61 3
-63 1z"/>
<path d="M6890 3310 c0 -5 5 -10 10 -10 6 0 10 5 10 10 0 6 -4 10 -10 10 -5 0
-10 -4 -10 -10z"/>
<path d="M2795 2510 c-3 -5 -1 -10 4 -10 6 0 11 5 11 10 0 6 -2 10 -4 10 -3 0
-8 -4 -11 -10z"/>
<path d="M2830 2411 c0 -6 4 -13 10 -16 6 -3 7 1 4 9 -7 18 -14 21 -14 7z"/>
<path d="M6900 2230 c-9 -6 -10 -10 -3 -10 6 0 15 5 18 10 8 12 4 12 -15 0z"/>
<path d="M2859 2178 c-5 -18 -6 -38 -1 -34 7 8 12 36 6 36 -2 0 -4 -1 -5 -2z"/>
<path d="M6775 2051 c-3 -5 -2 -12 3 -15 5 -3 9 1 9 9 0 17 -3 19 -12 6z"/>
</g>
</svg>
